Coordinates
version=1
nRows=60
nColumns=12
inDegrees=yes

Units are S.I. units (second, meters, Newtons, ...)
Angles are in degrees

endheader
time	SC_y	SC_z	SC_x	AC_y	AC_z	AC_x	GH_y	GH_z	GH_yy	EL_x	PS_y
       0.0              -28.58         -2.063          26.61          51.86         -17.87         0.4519          11.08         -8.813         -120.7          82.49          60.48
   0.03305              -28.58         -2.058          26.61          51.86         -17.87         0.4529           11.1          -8.81         -120.7          82.48          60.48
   0.06609              -28.59         -2.053          26.62          51.86         -17.87         0.4541          11.13         -8.807         -120.7          82.48          60.48
   0.09914              -28.59         -2.048          26.63          51.86         -17.87         0.4553          11.16         -8.803         -120.7          82.47          60.48
    0.1322               -28.6         -2.042          26.63          51.86         -17.87         0.4566          11.19         -8.799         -120.7          82.47          60.48
    0.1652               -28.6         -2.036          26.64          51.86         -17.87          0.458          11.22         -8.796         -120.7          82.46          60.48
    0.1983              -28.61          -2.03          26.65          51.86         -17.86         0.4594          11.25         -8.791         -120.7          82.46          60.48
    0.2313              -28.61         -2.023          26.65          51.86         -17.86          0.461          11.29         -8.787         -120.7          82.45          60.47
    0.2644              -28.62         -2.015          26.66          51.87         -17.86         0.4627          11.33         -8.782         -120.8          82.44          60.47
    0.2974              -28.62         -2.007          26.67          51.87         -17.86         0.4645          11.37         -8.777         -120.8          82.44          60.47
    0.3305              -28.63         -1.999          26.68          51.87         -17.86         0.4665          11.41         -8.772         -120.8          82.43          60.47
    0.3635              -28.64          -1.99          26.69          51.87         -17.86         0.4685          11.46         -8.766         -120.8          82.42          60.47
    0.3965              -28.65          -1.98           26.7          51.87         -17.86         0.4708          11.51         -8.759         -120.8          82.41          60.47
    0.4296              -28.65         -1.969          26.71          51.87         -17.86         0.4732          11.57         -8.752         -120.8           82.4          60.47
    0.4626              -28.66         -1.958          26.73          51.87         -17.85         0.4759          11.63         -8.745         -120.8          82.39          60.47
    0.4957              -28.67         -1.945          26.74          51.87         -17.85         0.4787          11.69         -8.737         -120.9          82.38          60.47
    0.5287              -28.68         -1.932          26.76          51.88         -17.85         0.4818          11.76         -8.728         -120.9          82.37          60.47
    0.5618              -28.69         -1.917          26.77          51.88         -17.85         0.4852          11.84         -8.718         -120.9          82.36          60.46
    0.5948              -28.71         -1.901          26.79          51.88         -17.85         0.4889          11.92         -8.708         -120.9          82.34          60.46
    0.6279              -28.72         -1.883          26.81          51.88         -17.84         0.4929          12.02         -8.697         -121.0          82.33          60.46
    0.6609              -28.74         -1.863          26.83          51.88         -17.84         0.4974          12.12         -8.684         -121.0          82.31          60.46
     0.694              -28.75         -1.842          26.86          51.89         -17.84         0.5023          12.23          -8.67         -121.0          82.29          60.46
     0.727              -28.77         -1.818          26.88          51.89         -17.83         0.5077          12.35         -8.655         -121.0          82.27          60.45
      0.76              -28.79         -1.792          26.91          51.89         -17.83         0.5136          12.49         -8.638         -121.1          82.25          60.45
    0.7931              -28.81         -1.763          26.95          51.89         -17.83         0.5203          12.64         -8.619         -121.1          82.22          60.45
    0.8261              -28.84          -1.73          26.98           51.9         -17.82         0.5277          12.81         -8.598         -121.2          82.19          60.44
    0.8592              -28.87         -1.694          27.02           51.9         -17.82          0.536           13.0         -8.575         -121.2          82.16          60.44
    0.8922               -28.9         -1.653          27.07          51.91         -17.81         0.5454          13.21         -8.548         -121.3          82.12          60.44
    0.9253              -28.93         -1.607          27.12          51.91          -17.8         0.5559          13.45         -8.518         -121.4          82.08          60.43
    0.9583              -28.97         -1.554          27.18          51.92          -17.8         0.5679          13.73         -8.484         -121.4          82.04          60.42
    0.9914              -29.02         -1.494          27.25          51.93         -17.79         0.5816          14.04         -8.445         -121.5          81.98          60.42
     1.024              -29.07         -1.426          27.32          51.93         -17.78         0.5973           14.4         -8.401         -121.6          81.92          60.41
     1.057              -29.14         -1.346          27.41          51.94         -17.77         0.6154          14.81          -8.35         -121.7          81.85           60.4
      1.09              -29.21         -1.254          27.52          51.95         -17.75         0.6365          15.29          -8.29         -121.9          81.77          60.39
     1.124              -29.29         -1.146          27.64          51.97         -17.74         0.6612          15.85          -8.22         -122.0          81.67          60.38
     1.157              -29.39         -1.018          27.78          51.98         -17.72         0.6902          16.52         -8.138         -122.2          81.56          60.37
      1.19              -29.51         -0.867          27.95           52.0          -17.7         0.7248          17.31          -8.04         -122.4          81.43          60.35
     1.223              -29.65        -0.6856          28.16          52.02         -17.67         0.7662          18.25         -7.923         -122.7          81.27          60.33
     1.256              -29.82        -0.4662           28.4          52.05         -17.64         0.8163          19.39         -7.781         -123.0          81.07          60.31
     1.289              -30.03        -0.1981           28.7          52.08         -17.61         0.8774          20.79         -7.608         -123.4          80.84          60.28
     1.322              -30.28         0.1328          29.07          52.12         -17.56          0.953          22.51         -7.394         -123.9          80.54          60.25
     1.355               -30.6         0.5454          29.54          52.16          -17.5          1.047          24.66         -7.127         -124.5          80.18           60.2
     1.388               -31.0          1.065          30.12          52.23         -17.43          1.166          27.37         -6.791         -125.3          79.72          60.15
     1.421              -31.52          1.726          30.86           52.3         -17.33          1.317          30.81         -6.364         -126.3          79.13          60.08
     1.454              -32.17          2.572          31.81           52.4         -17.21           1.51          35.22         -5.817         -127.5          78.38          59.99
     1.487              -33.01          3.657          33.03          52.53         -17.06          1.757          40.87         -5.116         -129.1          77.42          59.87
      1.52              -34.09          5.043          34.59          52.69         -16.87          2.074          48.09          -4.22         -131.2          76.19          59.72
     1.553              -35.44          6.786          36.55          52.89         -16.62          2.471          57.17         -3.093         -133.7          74.65          59.54
     1.586              -37.08          8.911          38.93          53.14         -16.32          2.956          68.23          -1.72         -136.9          72.77          59.31
     1.619              -38.99          11.37           41.7          53.43         -15.97          3.518          81.05        -0.1287         -140.5          70.59          59.05
     1.652              -41.06          14.04          44.69          53.74         -15.59          4.127          94.94          1.594         -144.4          68.23          58.76
     1.685              -43.12          16.71          47.68          54.05         -15.22          4.735          108.8          3.318         -148.3          65.87          58.48
     1.718              -45.03          19.17          50.45          54.34         -14.87          5.297          121.7          4.909         -152.0          63.69          58.22
     1.751              -46.68          21.29          52.83          54.59         -14.57          5.782          132.7          6.282         -155.1           61.8          57.99
     1.784              -48.03          23.03          54.79          54.79         -14.32           6.18          141.8          7.409         -157.7          60.26          57.81
     1.817               -49.1          24.42          56.35          54.95         -14.13          6.496          149.0          8.305         -159.7          59.03          57.66
     1.851              -49.94          25.51          57.57          55.08         -13.97          6.744          154.7          9.006         -161.3          58.07          57.54
     1.884               -50.6          26.35          58.52          55.18         -13.86          6.937          159.1          9.553         -162.6          57.32          57.45
     1.917              -51.11          27.01          59.26          55.26         -13.76          7.088          162.5           9.98         -163.5          56.74          57.38
      1.95              -51.51          27.53          59.84          55.32         -13.69          7.206          165.2          10.32         -164.3          56.28          57.33
